<svg id="Capa_1" enable-background="new 0 0 512 512" height="512" viewBox="0 0 512 512" width="512" xmlns="http://www.w3.org/2000/svg"><g><path d="m467.172 198.276c0-32.598-12.693-63.243-35.742-86.292l-76.242-76.242c-22.884-22.885-53.923-35.742-86.287-35.742h-.004-.001-176.699c-26.162 0-47.37 21.208-47.37 47.37v268.022l.715 103.972c.028 4.116 3.383 7.432 7.499 7.413h.053c4.142-.028 7.477-3.409 7.448-7.551l-.714-103.886v-267.97c0-17.878 14.492-32.37 32.369-32.37h159.831c31.376 0 56.812 25.436 56.812 56.812v39.143c0 26.166 21.211 47.377 47.377 47.377h39.143c31.262 0 56.702 25.382 56.807 56.62v249.668c0 17.883-14.497 32.38-32.38 32.38h-327.59c-.462 0-.922-.01-1.38-.029-16.711-.696-29.773-14.756-30.028-31.479l-.249-16.329c-.063-4.142-3.5-7.472-7.613-7.385-4.142.063-7.448 3.472-7.385 7.613l.303 19.879c.082 5.392 1.211 10.739 3.504 15.62 7.68 16.342 24.158 27.11 42.848 27.11h327.6c26.12 0 47.37-21.255 47.37-47.38zm-71.812-54.944h-39.143c-17.853 0-32.377-14.524-32.377-32.377v-39.143c0-20.268-8.438-38.599-21.987-51.669 15.941 5.136 30.545 14.021 42.729 26.205l76.242 76.242c12.184 12.184 21.068 26.787 26.205 42.729-13.07-13.549-31.401-21.987-51.669-21.987z"/><path d="m119.656 240.5h272.688c4.142 0 7.5-3.358 7.5-7.5s-3.358-7.5-7.5-7.5h-272.688c-4.142 0-7.5 3.358-7.5 7.5s3.358 7.5 7.5 7.5z"/><path d="m392.344 265.395h-39.47c-4.142 0-7.5 3.358-7.5 7.5s3.358 7.5 7.5 7.5h39.47c4.142 0 7.5-3.358 7.5-7.5s-3.358-7.5-7.5-7.5z"/><path d="m119.656 280.395h203.218c4.142 0 7.5-3.358 7.5-7.5s-3.358-7.5-7.5-7.5h-203.218c-4.142 0-7.5 3.358-7.5 7.5s3.358 7.5 7.5 7.5z"/><path d="m119.656 320.29h272.688c4.142 0 7.5-3.358 7.5-7.5s-3.358-7.5-7.5-7.5h-272.688c-4.142 0-7.5 3.358-7.5 7.5s3.358 7.5 7.5 7.5z"/><path d="m119.656 360.185h100.171c4.142 0 7.5-3.358 7.5-7.5s-3.358-7.5-7.5-7.5h-100.171c-4.142 0-7.5 3.358-7.5 7.5s3.358 7.5 7.5 7.5z"/><path d="m119.656 129.846h100.171c4.142 0 7.5-3.358 7.5-7.5s-3.358-7.5-7.5-7.5h-100.171c-4.142 0-7.5 3.358-7.5 7.5s3.358 7.5 7.5 7.5z"/></g></svg>